<?xml version="1.0" encoding="UTF-8"?>
<svg width="1000px" height="1000px" viewBox="0 0 1000 1000" version="1.1" xmlns="http://www.w3.org/2000/svg" xmlns:xlink="http://www.w3.org/1999/xlink">
    <title>CXSMXS Rounded SVG</title>
    <g id="CXSMXS-Rounded-SVG" stroke="none" stroke-width="1" fill="none" fill-rule="evenodd">
        <rect id="Rectangle" fill="#000000" x="0" y="0" width="999" height="1000" rx="74"></rect>
        <g id="C" transform="translate(172.5, 174.5)" fill="#FFFFFF" fill-rule="nonzero">
            <path d="M0,325.5 L216,325.5 L325.5,216 L325.5,0 L106.5,0 L0,106.5 L0,325.5 Z M3,111 L214.5,111 L214.5,322.5 L3,322.5 L3,111 Z M219,108 L242.25,85.5 L242.25,270 L244.5,270 L299.25,216 L299.25,27 L322.5,4.5 L322.5,214.5 L219,318 L219,108 Z M246,219 L291,219 L246,264 L246,219 Z M245.25,82.5 L243,80.25 L138,80.25 L138,30 L295.5,30 L295.5,214.5 L245.25,214.5 L245.25,82.5 Z M108,3 L318,3 L295.5,25.5 L135,27 L133.5,27 L81,79.5 C81,79.5 80.975,79.575 80.925,79.725 C80.875,79.875 80.85,80.05 80.85,80.25 C80.85,80.35 80.875,80.5 80.925,80.7 C80.975,80.9 81,81 81,81 C81.2,81.3 81.475,81.75 81.825,82.35 C82.175,82.95 82.4,83.25 82.5,83.25 L237,83.25 L214.5,106.5 L4.5,106.5 L108,3 Z M133.5,31.5 L133.5,79.5 L85.5,79.5 L133.5,31.5 Z" id="Shape"></path>
        </g>
        <g id="M" transform="translate(172.5, 501.5)" fill="#FFFFFF" fill-rule="nonzero">
            <path d="M0,325.5 L54,325.5 L161.25,220.5 L161.25,325.5 L216,325.5 L325.5,216 L325.5,0 L268.5,0 L216,51 L163.5,0 L106.5,0 L0,106.5 L0,325.5 Z M3,111 L54,111 L108,163.5 L162,111 L214.5,111 L214.5,322.5 L164.25,322.5 L164.25,190.5 L160.5,189 L108,240 L55.5,189 L53.25,190.5 L53.25,322.5 L3,322.5 L3,111 Z M57,195 L108,244.5 L160.5,193.5 L160.5,214.5 L57,318 L57,195 Z M219,108 L322.5,4.5 L322.5,214.5 L219,318 L219,108 Z M57,108 L162,3 L213,54 L108,159 L57,108 Z M108,3 L156,3 L52.5,106.5 L4.5,106.5 L108,3 Z M270,3 L318,3 L214.5,106.5 L166.5,106.5 L270,3 Z" id="Shape"></path>
        </g>
        <g id="S" transform="translate(662.25, 663.75) rotate(90) translate(-662.25, -663.75)translate(499.5, 501)" fill="#FFFFFF" fill-rule="nonzero">
            <path d="M0,325.5 L220.5,325.5 L283.5,262.5 C283.7,262.3 283.975,261.825 284.325,261.075 C284.675,260.325 284.9,259.8 285,259.5 C285.1,259 285.225,258.075 285.375,256.725 C285.525,255.375 285.675,253.925 285.825,252.375 C285.975,250.825 286.125,249.375 286.275,248.025 C286.425,246.675 286.5,245.75 286.5,245.25 L298.5,245.25 L325.5,217.5 L325.5,-1.20015386e-14 L109.5,-1.20015386e-14 L42.75,66 L42.75,80.25 L28.5,80.25 L0,109.5 L0,325.5 Z M3,111 L214.5,111 L214.5,322.5 L3,322.5 L3,111 Z M219,109.5 L282,46.5 L282,259.5 L219,322.5 L219,109.5 Z M285.75,43.5 L283.5,38.25 L138,38.25 L138,30 L295.5,30 L295.5,241.5 L285.75,241.5 L285.75,43.5 Z M300,28.5 L322.5,6 L322.5,217.5 L300,240 L300,28.5 Z M28.5,83.25 L190.5,83.25 L204,69 L204,65.25 L51,65.25 L112.5,3 L321,3 L298.5,26.25 L136.5,26.25 L123,41.25 L282,41.25 L217.5,106.5 L6,106.5 L28.5,83.25 Z M46.5,69 L201,69 L190.5,79.5 L46.5,79.5 L46.5,69 Z M133.5,33 L133.5,37.5 L129,37.5 L133.5,33 Z" id="Shape"></path>
        </g>
        <g id="X" transform="translate(662.25, 335.75) rotate(90) translate(-662.25, -335.75)translate(499.5, 173)" fill="#FFFFFF" fill-rule="nonzero">
            <path d="M0,325.5 L54,325.5 L108,273 L162,325.5 L216,325.5 L325.5,216 L325.5,189 L246,108 L325.5,27 L325.5,-3.20857461e-14 L268.5,-3.20857461e-14 L216,51 L163.5,-3.20857461e-14 L106.5,-3.20857461e-14 L0,106.5 L0,136.5 L78,216 L0,295.5 L0,325.5 Z M3,297 L82.5,216 L3,135 L3,111 L54,111 L108,163.5 L162,111 L214.5,111 L214.5,133.5 L133.5,216 L214.5,298.5 L214.5,322.5 L163.5,322.5 L108,268.5 L52.5,322.5 L3,322.5 L3,297 Z M219,297 L322.5,193.5 L322.5,214.5 L219,318 L219,297 Z M138,216 L243,111 L321,189 L216,294 L138,216 Z M57,108 L162,3 L213,54 L108,159 L57,108 Z M219,108 L322.5,4.5 L322.5,25.5 L219,129 L219,108 Z M108,3 L156,3 L52.5,106.5 L4.5,106.5 L108,3 Z M270,3 L318,3 L214.5,106.5 L166.5,106.5 L270,3 Z" id="Shape"></path>
        </g>
    </g>
</svg>