<?xml version="1.0" standalone="no"?>
<!DOCTYPE svg PUBLIC "-//W3C//DTD SVG 20010904//EN"
 "http://www.w3.org/TR/2001/REC-SVG-20010904/DTD/svg10.dtd">
<svg version="1.0" xmlns="http://www.w3.org/2000/svg"
 width="1024.000000pt" height="1024.000000pt" viewBox="0 0 1024.000000 1024.000000"
 preserveAspectRatio="xMidYMid meet">

<g transform="translate(0.000000,1024.000000) scale(0.100000,-0.100000)"
fill="#000000" stroke="none">
<path d="M4849 9539 c-955 -57 -1856 -415 -2604 -1033 -152 -126 -443 -416
-567 -566 -323 -392 -551 -776 -732 -1234 -493 -1245 -398 -2668 253 -3831
208 -370 441 -677 750 -986 452 -452 935 -770 1525 -1004 533 -211 1053 -308
1646 -308 595 0 1114 97 1646 308 590 234 1073 552 1525 1004 309 309 542 616
750 986 651 1162 746 2590 254 3831 -182 459 -410 843 -733 1234 -124 150
-415 440 -567 566 -892 737 -2003 1102 -3146 1033z m2106 -3563 c55 -67 171
-426 176 -546 2 -38 -15 -197 -32 -311 -5 -36 -11 -78 -13 -93 -5 -44 -19 -50
-69 -28 -39 17 -44 23 -40 46 11 58 -67 110 -211 140 -190 39 -397 1 -642
-119 -149 -72 -184 -104 -184 -165 0 -30 6 -43 31 -64 37 -32 76 -33 131 -5
l42 21 -62 -68 c-35 -37 -79 -94 -98 -125 -19 -32 -43 -61 -54 -64 -11 -3 -30
-21 -42 -38 -12 -18 -27 -35 -33 -39 -5 -4 -6 -8 -1 -8 5 0 2 -8 -7 -18 -11
-11 -19 -46 -23 -100 -4 -45 -8 -82 -9 -82 -2 0 -28 13 -58 29 -149 78 -330
56 -467 -58 -68 -57 -67 -57 -80 2 -24 102 -71 206 -124 275 l-53 68 19 35
c16 27 18 39 9 61 -16 42 -51 58 -193 88 -73 15 -173 42 -223 61 -89 33 -92
33 -255 34 -185 0 -252 -14 -380 -80 -36 -18 -95 -41 -130 -50 -79 -20 -90
-29 -90 -68 0 -24 -12 -43 -49 -82 -72 -74 -115 -143 -151 -242 -58 -162 -72
-295 -45 -437 46 -237 147 -397 336 -533 143 -101 264 -142 444 -149 224 -10
332 17 510 126 36 22 70 40 75 40 6 0 10 4 10 9 0 6 21 29 46 53 152 142 225
302 270 598 9 59 19 72 101 131 70 51 168 89 227 89 71 0 217 -63 263 -112 12
-14 34 -72 53 -143 38 -139 83 -235 148 -320 108 -138 237 -224 407 -271 53
-14 103 -19 205 -19 161 0 232 16 364 81 49 24 92 44 96 44 4 0 26 18 49 40
23 22 47 40 52 40 7 0 9 -30 5 -87 -7 -103 -35 -253 -47 -253 -5 0 -9 -8 -9
-19 0 -26 -55 -157 -80 -188 -11 -14 -20 -32 -20 -39 0 -8 -4 -14 -8 -14 -4 0
-16 -15 -27 -32 -19 -33 -97 -130 -164 -203 -36 -39 -181 -172 -315 -290 -38
-33 -92 -81 -120 -106 -28 -25 -76 -64 -106 -86 -397 -289 -528 -353 -719
-353 -134 1 -199 20 -315 94 -66 43 -135 76 -157 76 -10 0 -22 6 -26 13 -4 6
-19 18 -33 26 -51 29 -197 101 -205 101 -4 0 -26 9 -49 19 -73 34 -114 51
-123 51 -19 0 -343 170 -398 209 -33 23 -78 54 -100 68 -34 22 -104 74 -178
133 -29 23 -123 123 -168 178 -79 97 -213 327 -256 437 -33 87 -66 175 -79
215 -8 25 -19 54 -24 65 -5 11 -12 38 -15 60 -4 22 -11 45 -16 52 -6 6 -12 22
-13 35 -2 13 -8 41 -13 63 -6 22 -11 47 -12 55 0 8 -5 40 -10 70 -6 30 -13
105 -16 165 -8 165 -12 194 -25 210 -7 9 -8 15 -2 15 6 0 8 16 6 38 -6 59 -6
66 0 92 4 17 4 19 -2 7 -4 -11 -7 16 -6 65 1 46 2 85 4 88 1 3 1 15 0 28 -1
23 23 31 35 12 13 -21 41 -8 70 33 16 23 52 74 79 112 60 86 102 132 138 151
35 18 48 18 48 -2 0 -11 6 -14 20 -9 16 5 20 2 20 -15 0 -14 6 -21 18 -19 31
3 43 -1 37 -11 -3 -5 -2 -10 4 -10 10 0 197 85 221 101 8 5 40 22 70 37 96 49
170 94 170 103 0 5 5 9 11 9 11 0 119 76 178 125 20 17 47 36 61 43 29 14 144
32 208 32 l43 0 -20 -29 c-12 -16 -21 -35 -21 -43 0 -7 -9 -22 -21 -31 -30
-26 -22 -61 16 -65 17 -2 34 -8 39 -12 6 -6 14 -3 20 5 6 8 40 18 76 24 86 13
227 59 325 107 28 13 56 24 63 24 6 0 12 4 12 9 0 9 54 34 76 35 6 1 18 7 27
15 9 7 21 10 26 7 5 -4 12 -3 15 2 2 4 42 7 87 7 81 -1 82 -2 85 -28 2 -19 -2
-27 -12 -27 -15 0 -74 -58 -74 -72 0 -5 9 -8 20 -8 15 0 20 -7 20 -29 0 -84
47 -83 73 1 4 10 22 19 46 23 23 4 64 15 91 25 28 10 50 16 50 13 0 -4 8 1 18
9 9 9 33 19 52 23 41 9 159 63 178 82 7 7 17 13 22 13 34 0 230 164 345 288
44 48 101 108 126 133 l47 47 11 -24 c6 -14 19 -24 31 -24 12 0 19 -4 16 -9
-4 -5 -1 -11 5 -13 6 -2 13 -22 15 -43 4 -52 23 -85 47 -85 47 0 139 147 152
242 6 42 9 46 25 38 10 -6 35 -30 55 -54z m-3529 -1034 c-3 -26 -16 -83 -29
-127 -20 -73 -22 -77 -25 -43 -2 29 -7 36 -19 31 -12 -5 -14 -3 -8 8 12 18 14
53 5 59 -14 9 -14 34 -1 77 13 48 36 66 64 51 16 -8 18 -17 13 -56z m3479 14
c105 -36 237 -123 282 -186 17 -25 6 -59 -18 -53 -10 3 -16 9 -13 14 3 5 -2 9
-10 9 -9 0 -16 6 -16 13 0 8 -9 22 -20 32 -18 16 -26 17 -82 5 -35 -6 -68 -16
-74 -21 -6 -5 -33 -12 -60 -15 -27 -4 -54 -10 -59 -15 -6 -4 -35 -1 -65 7
-104 28 -199 35 -310 24 -57 -6 -108 -16 -111 -22 -4 -6 -12 -7 -19 -3 -6 4
-20 -1 -32 -12 -11 -10 -21 -17 -22 -15 0 2 -12 1 -26 -2 -14 -3 -36 -7 -50
-9 -42 -6 -76 -24 -98 -51 -29 -37 -38 -32 -11 7 64 92 186 199 286 249 47 24
154 58 223 72 14 2 70 3 125 2 77 -2 118 -9 180 -30z m578 2 c13 -18 29 -47
35 -64 10 -30 9 -32 -16 -37 -15 -3 -50 -29 -79 -58 l-52 -52 10 39 c13 48 49
175 54 192 7 20 23 14 48 -20z m51 -224 c15 -39 -5 -226 -46 -434 l-23 -115
-6 115 c-7 112 -24 202 -56 287 -19 53 -14 66 39 99 24 15 49 35 56 46 16 22
28 23 36 2z m-4624 -36 c44 -23 46 -25 77 -123 17 -55 46 -149 64 -210 17 -60
34 -117 37 -125 3 -8 -14 13 -37 47 -83 123 -238 239 -308 231 -24 -3 -28 -8
-31 -39 -3 -31 2 -40 26 -57 15 -11 48 -28 73 -38 173 -68 273 -218 384 -579
53 -173 75 -237 85 -250 14 -19 32 -114 25 -135 -10 -32 -83 -80 -121 -80 -49
0 -79 15 -135 67 -79 74 -134 165 -229 383 -174 399 -219 648 -143 807 23 49
87 111 121 116 55 8 69 6 112 -15z m1311 -66 c-38 -4 -78 -27 -63 -35 4 -4 50
-9 101 -13 50 -4 94 -12 98 -17 4 -6 0 -8 -11 -4 -13 5 -19 1 -23 -13 -3 -11
-9 -17 -14 -14 -14 8 -131 6 -138 -3 -3 -4 -21 -9 -39 -10 -19 -1 -49 -15 -72
-33 -21 -16 -41 -30 -45 -30 -10 0 -75 -69 -75 -80 0 -5 -9 -17 -19 -27 -24
-22 -37 -75 -46 -175 -6 -67 -5 -78 9 -78 9 0 16 4 16 8 0 13 158 85 173 79 6
-2 20 -27 29 -54 21 -59 77 -126 137 -165 55 -34 77 -37 61 -7 -7 11 -9 23 -6
27 3 3 6 0 6 -6 0 -8 6 -9 18 -3 43 22 71 31 127 41 33 5 80 23 105 38 25 16
54 34 66 42 29 18 74 6 74 -21 0 -11 -5 -29 -11 -41 -20 -38 -2 -28 30 17 44
61 62 119 63 198 l1 68 31 -6 c68 -14 143 -77 192 -161 10 -17 13 -15 29 19 9
20 21 37 25 37 16 0 32 72 26 118 -8 69 -9 73 -34 120 -35 67 -8 40 30 -31 70
-126 91 -227 78 -365 -12 -122 -31 -197 -75 -291 -88 -186 -246 -323 -455
-397 -100 -35 -286 -45 -403 -20 -152 31 -303 119 -411 238 -98 108 -150 217
-181 385 -35 184 23 401 153 573 60 80 84 93 166 92 39 -1 100 2 136 6 36 4
90 5 120 2 44 -3 48 -5 21 -8z m732 -45 c39 -40 40 -48 5 -25 -20 13 -34 26
-31 31 6 10 13 9 26 -6z m2214 -45 c24 -63 42 -145 43 -187 0 -50 10 -86 20
-80 5 3 14 31 20 63 13 64 59 213 70 225 11 13 39 -71 56 -168 37 -209 -22
-432 -159 -603 -90 -112 -183 -182 -306 -232 -99 -41 -183 -53 -315 -48 -183
8 -323 71 -449 202 -109 112 -170 237 -202 415 -23 125 -16 174 32 223 20 21
40 38 44 38 3 0 11 -25 17 -54 15 -75 52 -144 101 -189 41 -38 108 -73 119
-63 3 3 1 6 -5 6 -5 0 -10 7 -10 15 0 8 8 15 18 15 10 0 20 4 23 9 3 5 23 12
43 15 70 13 137 39 183 71 35 26 52 32 78 28 35 -6 42 -26 21 -66 -12 -22 -12
-22 13 1 51 46 97 187 82 248 -3 12 -1 24 4 28 15 9 147 -59 191 -99 22 -20
45 -34 51 -30 6 3 17 22 25 41 8 19 36 56 62 82 29 28 54 64 62 89 8 23 21 44
30 46 21 4 22 3 38 -41z m-2754 21 c-7 -2 -19 -2 -25 0 -7 3 -2 5 12 5 14 0
19 -2 13 -5z m111 -59 c9 -3 13 -10 10 -15 -3 -5 8 -12 25 -15 40 -8 39 -20
-1 -29 -18 -4 -35 -9 -38 -9 -116 -38 -150 -51 -150 -58 0 -4 -7 -8 -16 -8 -9
0 -28 -7 -42 -14 -15 -8 -77 -33 -139 -55 -61 -22 -134 -51 -162 -66 -28 -14
-51 -23 -51 -20 0 15 22 45 33 45 7 0 23 10 37 21 70 57 211 139 239 139 5 0
14 6 18 13 11 17 81 50 92 42 6 -3 13 1 18 9 12 21 91 34 127 20z m1770 -16
c-27 -48 -87 -65 -114 -33 -16 19 -14 21 30 33 52 15 93 15 84 0z m-2937 -170
c-3 -8 -6 -5 -6 6 -1 11 2 17 5 13 3 -3 4 -12 1 -19z m4049 -402 c-29 -123
-93 -234 -143 -250 -38 -12 -28 17 40 117 34 50 73 118 87 149 13 31 26 56 28
54 1 -2 -4 -33 -12 -70z"/>
<path d="M5197 4494 c-10 -11 3 -24 24 -24 10 0 19 7 19 15 0 15 -31 21 -43 9z"/>
<path d="M5616 4487 c-28 -21 -17 -51 21 -55 34 -3 66 28 56 54 -7 18 -54 18
-77 1z"/>
<path d="M5762 4438 c-18 -18 -15 -38 6 -38 21 0 42 18 42 37 0 16 -32 17 -48
1z"/>
<path d="M5717 4126 c-6 -15 1 -26 15 -26 4 0 8 9 8 20 0 23 -15 27 -23 6z"/>
<path d="M5815 4030 c-8 -13 3 -30 21 -30 18 0 18 14 0 29 -10 8 -16 9 -21 1z"/>
<path d="M5230 3831 c0 -22 16 -36 24 -22 8 12 -3 41 -15 41 -5 0 -9 -9 -9
-19z"/>
<path d="M7050 3404 c0 -45 24 -42 28 4 2 24 -1 32 -12 32 -12 0 -16 -10 -16
-36z"/>
<path d="M4915 3411 c-8 -15 3 -31 21 -31 9 0 14 7 12 17 -4 20 -24 28 -33 14z"/>
<path d="M5900 3410 c0 -3 -2 -32 -3 -66 -4 -112 -69 -164 -215 -172 -68 -4
-93 -1 -145 18 -80 29 -102 47 -157 128 -48 71 -63 81 -68 44 -12 -85 95 -209
223 -257 98 -37 335 -18 375 30 17 20 19 234 3 260 -7 11 -13 18 -13 15z"/>
<path d="M4054 3124 c3 -9 6 -18 6 -20 0 -2 9 -4 20 -4 23 0 26 10 8 28 -18
18 -41 15 -34 -4z"/>
<path d="M6215 2961 c-42 -11 -102 -37 -133 -59 -44 -30 -230 -108 -327 -138
-99 -29 -175 -64 -218 -100 -36 -30 -31 -30 30 0 60 30 303 100 403 116 108
17 192 38 199 48 3 5 18 12 34 16 21 5 27 3 27 -10 0 -39 -32 -82 -83 -109
-29 -16 -71 -41 -94 -57 -23 -15 -59 -32 -80 -37 -34 -8 -35 -9 -9 -10 22 -1
27 -5 22 -17 -6 -15 1 -16 58 -11 84 8 107 21 183 99 47 49 65 77 77 118 9 29
16 61 16 69 0 9 16 26 36 39 19 13 34 28 31 35 -4 14 -126 19 -172 8z"/>
<path d="M7016 4871 c-4 -7 -5 -15 -2 -18 9 -9 19 4 14 18 -4 11 -6 11 -12 0z"/>
<path d="M3773 4426 c-13 -6 -23 -18 -24 -26 0 -10 -2 -11 -6 -2 -2 6 -9 12
-14 12 -6 0 -7 -4 -4 -10 3 -5 1 -10 -4 -10 -15 0 -14 -37 2 -43 7 -4 6 -6 -4
-6 -44 -2 -25 -80 19 -81 7 0 12 13 12 30 0 17 3 29 8 29 23 -4 34 6 53 46 17
37 19 48 9 60 -14 17 -16 17 -47 1z"/>
</g>
</svg>
